<?xml version="1.0" encoding="utf-8"?>
<!-- Generator: Adobe Illustrator 16.0.0, SVG Export Plug-In . SVG Version: 6.00 Build 0)  -->
<!DOCTYPE svg PUBLIC "-//W3C//DTD SVG 1.1//EN" "http://www.w3.org/Graphics/SVG/1.1/DTD/svg11.dtd">
<svg version="1.1" id="Capa_1" xmlns="http://www.w3.org/2000/svg" xmlns:xlink="http://www.w3.org/1999/xlink" x="0px" y="0px"
	 width="323.754px" height="427.066px" viewBox="0 0 323.754 427.066" enable-background="new 0 0 323.754 427.066"
	 xml:space="preserve">
<g>
	<path fill-rule="evenodd" clip-rule="evenodd" d="M68.22,40.915c62.48,0,124.828,0,187.366,0c0,0.488,0,0.907,0,1.325
		c0,44.999,0.002,89.997-0.001,134.995c-0.001,15.599-0.002,31.199-0.021,46.798c-0.01,7.971-1.998,15.341-6.955,21.712
		c-5.523,7.097-12.877,11.068-21.734,12.269c-2.248,0.305-4.537,0.415-6.808,0.417c-31.278,0.041-62.556,0.051-93.834,0.06
		c-8.159,0.002-16.32,0.063-24.478-0.061c-16.836-0.256-29.61-10.812-32.699-26.379c-0.563-2.838-0.801-5.787-0.804-8.685
		c-0.045-57.718-0.034-115.436-0.034-173.154C68.22,47.14,68.22,44.068,68.22,40.915z M74.323,46.984c0,1.109,0,2.181,0,3.254
		c0,57.711-0.006,115.423,0.021,173.134c0.001,2.267,0.142,4.563,0.52,6.793c2.165,12.78,12.339,21.516,25.271,22.078
		c8.063,0.351,16.149,0.206,24.226,0.202c32.153-0.016,64.306-0.06,96.459-0.111c1.674-0.003,3.361-0.065,5.019-0.277
		c6.929-0.885,12.792-3.845,17.332-9.223c4.631-5.485,6.339-11.975,6.354-19.006c0.035-16.157,0.072-32.313,0.068-48.47
		c-0.009-37.993-0.044-75.986-0.062-113.98c-0.001-4.318,0.043-8.636,0.065-12.955c0.002-0.429,0-0.858,0-1.439
		C191.106,46.984,132.739,46.984,74.323,46.984z"/>
	<path fill-rule="evenodd" clip-rule="evenodd" d="M116.455,427.029c-8.199,0-16.397,0.001-24.596,0
		c-3.472,0-6.947,0.101-10.413-0.045c-2.462-0.104-3.489-1.26-3.706-3.695c-0.102-1.147-0.099-2.306-0.1-3.459
		c-0.008-7.12-0.011-14.239,0-21.358c0.003-2.078-0.038-4.163,0.099-6.234c0.387-5.869-2.188-9.909-7.336-12.576
		c-7.402-3.834-14.778-7.721-22.106-11.695c-7.622-4.134-15.049-8.598-21.785-14.102c-12.373-10.11-20.26-23.015-23.871-38.557
		c-1.524-6.564-2.136-13.229-2.205-19.956c-0.138-13.671-0.333-27.343-0.424-41.015c-0.05-7.437,0.063-14.875,0.104-22.312
		c0.045-8.037,0.154-16.074,0.122-24.111c-0.025-6.179,1.934-11.545,6.275-15.935c8.095-8.185,20.23-9.382,29.483-2.203
		c5.534,4.294,8.697,9.955,8.732,17.074c0.083,16.476,0.094,32.952,0.088,49.428c0,1.16,0.268,1.876,1.332,2.469
		c3.973,2.213,7.863,4.574,11.837,6.785c3.994,2.223,7.336,5.167,10.43,8.515c6.925,7.492,15.038,13.453,24.117,18.104
		c9.633,4.935,19.876,7.94,30.5,9.828c15.323,2.724,25.628,12.814,28.375,27.919c0.519,2.854,0.794,5.788,0.821,8.688
		c0.131,14.436,0.167,28.872,0.187,43.308c0.017,12.279-0.026,24.557-0.06,36.835c-0.003,1.316-0.088,2.634-0.186,3.947
		c-0.233,3.14-1.218,4.096-4.401,4.302c-0.717,0.046-1.438,0.049-2.158,0.049C135.893,427.03,126.174,427.029,116.455,427.029z
		 M146.157,420.707c0-0.417,0-0.731,0-1.045c0.04-12.237,0.107-24.475,0.112-36.712c0.004-11.318-0.009-22.637-0.111-33.955
		c-0.052-5.831,0.006-11.69-0.562-17.48c-0.661-6.737-3.81-12.439-8.818-17.061c-4.382-4.044-9.654-6.006-15.463-6.977
		c-11.149-1.863-21.873-5.126-31.974-10.29c-8.757-4.477-16.581-10.208-23.343-17.361c-1.839-1.945-3.53-4.04-5.458-5.89
		c-4.391-4.216-9.539-6.392-15.715-5.092c-7.119,1.498-15.031,9.276-12.156,19.54c1.175,4.195,3.707,7.567,6.736,10.596
		c9.249,9.248,18.522,18.471,27.748,27.744c1.171,1.177,2.189,2.531,3.128,3.905c0.769,1.126,0.003,2.019-0.792,2.823
		c-0.795,0.805-1.703,1.334-2.759,0.623c-1.151-0.776-2.305-1.6-3.279-2.579c-8.125-8.163-16.237-16.338-24.291-24.571
		c-3.016-3.083-6.113-6.136-8.734-9.541c-4.045-5.256-5.568-11.265-3.755-17.834c1.277-4.627,3.972-8.4,7.328-11.758
		c2.754-2.755,4.497-6.063,4.572-9.991c0.168-8.794,0.215-17.592,0.258-26.388c0.026-5.478-0.01-10.957-0.086-16.435
		c-0.043-3.073-0.011-6.171-0.388-9.212c-0.958-7.736-5.573-13.792-14.267-14.559c-7.752-0.684-13.999,3.214-16.509,10.456
		c-0.996,2.873-1.208,5.856-1.225,8.855c-0.063,11.558-0.14,23.116-0.117,34.674c0.032,16.396,0.147,32.792,0.228,49.188
		c0.042,8.63,1.053,17.113,3.766,25.35c5.273,16.004,15.497,28.111,29.489,37.151c9.468,6.117,19.624,10.992,29.766,15.869
		c3.197,1.538,6.454,2.961,9.584,4.624c2.96,1.572,4.399,4.225,4.421,7.567c0.015,2.235-0.179,4.472-0.178,6.708
		c0.003,9.357,0.044,18.715,0.075,28.073c0.001,0.313,0.046,0.625,0.075,0.988C104.344,420.707,125.169,420.707,146.157,420.707z"/>
	<path fill-rule="evenodd" clip-rule="evenodd" d="M178,420.584c20.84,0,41.545,0,62.376,0c0.022-0.47,0.061-0.891,0.061-1.311
		c0.004-10.08,0.007-20.159-0.001-30.238c-0.001-1.834-0.123-3.67-0.061-5.501c0.106-3.103,1.881-5.03,4.59-6.299
		c4.153-1.946,8.287-3.934,12.409-5.942c2.617-1.275,5.198-2.624,7.801-3.928c0.498-0.25,1.011-0.477,1.536-0.661
		c1.903-0.665,2.678-0.402,3.473,1.139c0.867,1.683,0.713,2.814-0.971,3.757c-3.428,1.921-6.667,4.173-10.531,5.314
		c-6.877,2.032-11.502,6.391-12.539,13.727c-0.397,2.816-0.152,5.729-0.127,8.596c0.046,5.033,0.191,10.064,0.211,15.096
		c0.013,3.076-0.061,6.156-0.23,9.227c-0.132,2.398-1.054,3.321-3.44,3.437c-2.472,0.119-4.952,0.032-7.429,0.032
		c-17.04,0-34.079,0-51.118,0c-2.797,0-5.598,0.096-8.39-0.023c-2.364-0.101-3.159-0.961-3.496-3.288
		c-0.057-0.393-0.044-0.798-0.044-1.197c-0.015-10.08-0.02-20.159-0.042-30.239c-0.013-6.039-0.084-12.077-0.072-18.115
		c0.02-9.877,0.024-19.756,0.161-29.633c0.067-4.868,0.107-9.769,0.694-14.589c1.691-13.901,10.931-24.001,24.655-27.248
		c5.036-1.191,10.174-1.987,15.163-3.341c14.927-4.051,27.928-11.62,39.264-22.091c1.761-1.626,3.496-3.29,5.129-5.042
		c2.965-3.18,6.619-5.367,10.332-7.502c3.632-2.089,7.24-4.217,10.819-6.394c0.405-0.247,0.778-0.919,0.782-1.397
		c0.049-7.439,0.033-14.879,0.033-22.319c0.001-8.916-0.068-17.833,0.019-26.748c0.115-11.752,7.725-20.581,19.236-22.496
		c11.226-1.868,23.114,6.51,24.909,17.759c0.475,2.974,0.314,6.06,0.335,9.095c0.114,17.315,0.276,34.631,0.258,51.946
		c-0.011,10.032-0.414,20.063-0.485,30.096c-0.068,9.529-2.596,18.508-5.66,27.401c-1.142,3.314-2.165,6.669-3.243,10.005
		c-0.098,0.303-0.19,0.61-0.303,0.908c-0.926,2.442-3.54,2.908-5.195,0.859c-0.341-0.422-0.456-1.203-0.357-1.763
		c0.148-0.847,0.503-1.682,0.896-2.458c4.124-8.142,6.379-16.807,7.427-25.84c1.096-9.45,0.64-18.922,0.572-28.391
		c-0.032-4.598-0.09-9.196-0.101-13.794c-0.016-7.84-0.027-15.68,0.002-23.52c0.035-9.677,0.161-19.354,0.138-29.03
		c-0.006-2.055-0.285-4.16-0.788-6.154c-1.646-6.52-6.48-10.333-13.334-10.356c-2.558-0.009-5.167,0.448-7.665,1.055
		c-5.274,1.282-8.227,5.045-9.521,10.071c-0.629,2.438-0.829,5.037-0.871,7.569c-0.168,10.034-0.238,20.07-0.261,30.106
		c-0.013,5.635,0.193,11.271,0.196,16.907c0.003,4.005,1.803,7.138,4.498,9.852c2.991,3.013,5.512,6.326,6.917,10.373
		c2.575,7.419,0.893,14.109-3.803,20.114c-1.961,2.509-4.268,4.757-6.507,7.036c-8.017,8.158-16.063,16.287-24.12,24.405
		c-1.374,1.386-2.784,2.753-4.3,3.977c-2.07,1.671-3.433,0.515-4.541-1.494c-0.21-0.381-0.067-1.164,0.203-1.564
		c0.799-1.184,1.648-2.364,2.649-3.377c3.85-3.898,7.78-7.716,11.652-11.593c5.852-5.857,11.721-11.698,17.489-17.636
		c1.573-1.619,3.024-3.437,4.173-5.376c3.864-6.525,2.988-13.269-2.242-18.772c-6.758-7.109-16.538-7.228-23.618-0.214
		c-3.123,3.093-5.998,6.443-9.197,9.452c-11.674,10.976-25.396,18.294-40.888,22.241c-4.705,1.199-9.534,1.906-14.296,2.885
		c-10.391,2.136-16.797,8.611-19.988,18.515c-1.129,3.504-1.191,7.151-1.212,10.789c-0.084,14.835-0.203,29.671-0.229,44.507
		c-0.022,12.478,0.066,24.956,0.109,37.434C177.949,419.745,177.978,420.099,178,420.584z"/>
	<path fill-rule="evenodd" clip-rule="evenodd" d="M67.848,36.408c0-3.166-0.01-6.24,0.002-9.314
		c0.019-4.513,0.028-9.025,0.09-13.538c0.1-7.266,4.573-12.301,11.761-13.269c0.986-0.133,1.986-0.235,2.979-0.236
		c52.146-0.034,104.293-0.065,156.439-0.046c2.214,0,4.488,0.227,6.628,0.769c5.835,1.481,9.49,5.603,9.706,11.599
		c0.286,7.974,0.07,15.966,0.07,24.035C193.03,36.408,130.551,36.408,67.848,36.408z M73.766,30.361c58.8,0,117.286,0,175.878,0
		c0-1.368,0.018-2.645-0.003-3.921c-0.077-4.709-0.091-9.421-0.284-14.125c-0.102-2.482-1.475-4.403-3.809-5.196
		c-1.891-0.642-3.96-1.06-5.95-1.062C190.366,6,141.135,6.007,91.903,6.023c-3.794,0.001-7.601-0.013-11.377,0.285
		c-3.631,0.286-6.193,2.59-6.343,5.769C73.895,18.137,73.89,24.21,73.766,30.361z"/>
	<path fill-rule="evenodd" clip-rule="evenodd" d="M296.228,354.632c-0.8,0.598-1.515,1.163-2.259,1.685
		c-1.123,0.785-3.012,0.004-3.271-1.383c-0.053-0.284,0.17-0.675,0.367-0.941c1.548-2.1,2.061-2.155,3.963-0.468
		C295.412,353.865,295.784,354.222,296.228,354.632z"/>
	<path fill-rule="evenodd" clip-rule="evenodd" d="M161.734,109.009c3.013-2.557,5.732-5.309,8.871-7.448
		c11.349-7.737,27.228-6.422,37.366,2.842c6.355,5.808,9.812,13.114,10.899,21.531c1.374,10.638-1.928,19.906-9.069,27.748
		c-6.133,6.735-12.519,13.239-18.792,19.847c-8.418,8.867-16.834,17.737-25.259,26.598c-0.604,0.635-1.232,1.262-1.924,1.797
		c-1.555,1.203-2.512,1.261-3.93-0.079c-2.147-2.027-4.173-4.187-6.216-6.322c-4.779-4.995-9.55-9.997-14.301-15.019
		c-8.706-9.201-17.584-18.248-26.043-27.671c-11.072-12.334-11.639-30.341-1.727-43.724c5.485-7.405,12.889-11.54,22.053-12.379
		c9.542-0.874,17.769,2.082,24.603,8.831C159.486,106.767,160.699,107.979,161.734,109.009z M161.667,195.618
		c3.163-3.463,6.289-6.977,9.512-10.398c11.07-11.751,22.138-23.506,33.28-35.188c6.331-6.637,9.432-14.323,8.175-23.541
		c-0.978-7.177-3.742-13.484-9.598-18.013c-6.051-4.68-12.884-6.756-20.553-5.244c-5.147,1.015-9.363,3.756-13.052,7.367
		c-1.684,1.648-3.218,3.45-4.923,5.074c-1.85,1.76-3.263,1.749-5.123,0.003c-1.834-1.723-3.577-3.542-5.351-5.329
		c-4.073-4.103-8.902-6.782-14.698-7.308c-9.035-0.82-16.514,2.165-22.213,9.408c-8.529,10.839-8.262,25.892,1.03,36.061
		c9.38,10.264,19.056,20.256,28.514,30.449C151.764,184.449,157.403,189.462,161.667,195.618z"/>
</g>
</svg>
