<?xml version="1.0" encoding="utf-8"?>
<!-- Generator: Adobe Illustrator 16.0.0, SVG Export Plug-In . SVG Version: 6.00 Build 0)  -->
<!DOCTYPE svg PUBLIC "-//W3C//DTD SVG 1.1//EN" "http://www.w3.org/Graphics/SVG/1.1/DTD/svg11.dtd">
<svg version="1.1" id="Capa_1" xmlns="http://www.w3.org/2000/svg" xmlns:xlink="http://www.w3.org/1999/xlink" x="0px" y="0px"
	 width="270.667px" height="423.333px" viewBox="0 0 270.667 423.333" enable-background="new 0 0 270.667 423.333"
	 xml:space="preserve">
<g>
	<path fill-rule="evenodd" clip-rule="evenodd" stroke="#FFFFFF" stroke-miterlimit="10" d="M205.581,135.513
		c-16.955,0-33.782,0-50.734,0c-0.161,3.377-0.346,6.72-0.473,10.063c-0.162,4.279-0.703,8.455-3.297,12.055
		c-4.648,6.461-10.994,9.258-18.78,7.765c-7.657-1.469-12.717-6.203-14.468-13.899c-0.707-3.124-0.654-6.422-0.9-9.646
		c-0.158-2.066-0.229-4.139-0.343-6.304c-16.89,0-33.703,0-50.593,0c0.368,2.895,0.724,5.739,1.093,8.583
		c0.538,4.157,1.144,8.308,1.593,12.474c0.137,1.245-0.035,2.549-0.245,3.797c-0.239,1.389-1.246,2.042-2.621,2.226
		c-1.421,0.191-2.699-0.153-3.18-1.524c-0.709-2.012-1.312-4.098-1.626-6.202c-0.702-4.658-1.234-9.343-1.76-14.026
		c-0.383-3.403-2.215-6.097-4.856-7.809c-4.821-3.12-6.321-7.726-6.804-12.924c-0.389-4.204-0.099-8.392,1.193-12.453
		c1.932-6.071,5.84-8.927,12.555-9.054c4.44-0.084,8.881-0.017,13.325-0.017c13.684,0,27.369,0,41.057,0c0.515,0,1.026,0,1.704,0
		c0-0.53,0.002-0.952,0-1.376c-0.046-6.119-0.188-12.242-0.098-18.361c0.04-2.938,0.142-5.967,0.867-8.788
		c2.063-8.041,10.323-13.516,18.635-12.992c8.139,0.513,15.451,6.442,16.9,14.617c0.42,2.382,0.486,4.85,0.498,7.28
		c0.037,6.04-0.055,12.082-0.094,18.123c-0.002,0.438,0,0.875,0,1.497c0.569,0,1.07,0,1.574,0c17.525,0,35.054-0.019,52.582,0.026
		c1.941,0.004,3.917,0.208,5.822,0.603c4.923,1.024,7.975,4.104,8.916,9.029c1.027,5.379,0.954,10.834,0.2,16.233
		c-0.512,3.661-2.64,6.511-5.771,8.453c-3.231,2.003-4.736,4.908-5.205,8.563c-0.986,7.644-2.054,15.273-3.064,22.914
		c-0.922,6.965-1.77,13.942-2.729,20.904c-1.055,7.63-1.886,15.31-3.379,22.857c-1.95,9.839-9.593,16.645-19.508,18.058
		c-1.853,0.265-3.739,0.42-5.611,0.421c-27.892,0.026-55.784,0.032-83.681,0.003c-3.805-0.004-7.567-0.509-11.191-1.757
		c-7.039-2.425-11.5-7.377-13.958-14.292c-1.553-4.366-2.043-8.935-2.626-13.484c-0.807-6.298-1.585-12.599-2.321-18.908
		c-0.113-0.971-0.06-2.004,0.134-2.964c0.315-1.584,1.314-2.373,2.91-2.562c1.51-0.179,2.849,0.418,3.359,1.93
		c0.573,1.72,0.908,3.542,1.157,5.347c1.16,8.425,2.153,16.875,3.413,25.287c1.074,7.156,7.082,12.828,14.259,13.751
		c1.737,0.224,3.501,0.357,5.254,0.359c27.254,0.023,54.506,0.042,81.758-0.026c2.729-0.006,5.525-0.317,8.177-0.963
		c6.387-1.556,9.857-6.089,11.276-12.24c0.8-3.451,1.214-6.993,1.711-10.509c0.801-5.694,1.528-11.399,2.286-17.101
		c0.844-6.333,1.688-12.666,2.529-18.999c0.843-6.333,1.686-12.666,2.524-18.999C205.149,138.9,205.358,137.248,205.581,135.513z
		 M124.392,111.394c0,1.398,0,2.797,0,4.197c0,7.321-0.023,14.643,0.008,21.964c0.014,3.398,0.004,6.803,0.221,10.191
		c0.225,3.405,1.595,6.381,4.421,8.426c3.663,2.648,7.673,2.824,11.698,0.987c3.983-1.82,5.831-5.266,6.157-9.458
		c0.271-3.462,0.225-6.951,0.231-10.43c0.011-5.919-0.065-11.839-0.065-17.759c0-6.681,0.071-13.361,0.069-20.041
		c0-7.48-0.033-14.96-0.091-22.439c-0.01-1.152-0.152-2.317-0.373-3.447c-1.089-5.524-5.361-8.926-11.132-8.921
		c-5.424,0.003-9.761,3.484-10.645,8.971c-0.482,3.015-0.465,6.126-0.48,9.195C124.356,92.35,124.392,101.872,124.392,111.394z
		 M116.687,127.171c0-7.259,0-14.273,0-21.363c-0.585,0-1.064,0-1.542,0c-15.81,0-31.616-0.003-47.425,0.005
		c-2.276,0.002-4.56-0.031-6.823,0.124c-3.079,0.212-5.118,2.029-5.438,5.082c-0.304,2.932-0.342,5.901-0.335,8.854
		c0.008,5.594,3.494,7.794,8.461,7.749c14.523-0.138,29.056-0.041,43.582-0.086C110.317,127.524,113.468,127.301,116.687,127.171z
		 M154.644,127.552c0.56,0,1.028,0,1.503,0c16.437,0,32.876,0,49.314,0c1.758,0,3.518,0.059,5.275-0.012
		c2.66-0.105,4.577-1.613,5.116-4.22c0.826-3.988,0.592-8.033,0.237-12.054c-0.273-3.087-2.278-4.999-5.36-5.318
		c-0.795-0.082-1.593-0.132-2.393-0.133c-15.639-0.007-31.275-0.026-46.915,0.017c-2.255,0.007-4.507,0.318-6.778,0.487
		C154.644,113.447,154.644,120.402,154.644,127.552z"/>
	<g>
		<path fill-rule="evenodd" clip-rule="evenodd" stroke="#FFFFFF" stroke-width="7" stroke-miterlimit="10" d="M135.61,405.631
			c44.845-57.89,86.841-116.537,113.065-187.808c15.97-43.396,14.637-85.738-4.604-127.357c-1.166-2.517-3.024-5.458-2.678-7.842
			c0.472-3.228,2.433-8.232,4.351-8.625c2.747-0.56,7.941,1.489,8.787,3.932c6.534,18.857,14.364,37.591,17.839,57.282
			c8.772,49.709-9.154,92.984-29.694,134.408c-27.271,54.993-61.019,104.674-98.826,150.715c-6.487,7.897-9.697,8.52-15.166,1.722
			C86.579,369.723,47.746,314.592,19.531,250.644C5.833,219.604-4.702,187.45-3.31,151.737C-0.412,77.491,51.789,7.047,117.579-2.26
			c30.248-4.28,58.082,2.352,84.457,19.107c5.13,3.258,10.668,7.179,6.756,14.673c-3.69,7.063-9.156,2.943-13.902,0.059
			C147.356,2.702,101.627,6.854,59.794,44.971c-35.857,32.671-52.331,77.23-47.305,129.469c2.025,21.039,9.431,42.083,17.324,61.558
			c23.368,57.666,57.563,107.008,93.995,154.393C127.481,395.167,131.182,399.913,135.61,405.631z"/>
		<path fill-rule="evenodd" clip-rule="evenodd" stroke="#FFFFFF" stroke-width="7" stroke-miterlimit="10" d="M239.048,50.868
			c-5.007,3.946-8.161,8.337-10.688,7.903c-2.715-0.466-6.223-5.197-6.715-8.579c-0.305-2.115,4.296-7.226,6.743-7.268
			C231.212,42.875,234.09,46.924,239.048,50.868z"/>
	</g>
</g>
</svg>
