<?xml version="1.0" encoding="utf-8"?>
<!-- Generator: Adobe Illustrator 16.0.0, SVG Export Plug-In . SVG Version: 6.00 Build 0)  -->
<!DOCTYPE svg PUBLIC "-//W3C//DTD SVG 1.1//EN" "http://www.w3.org/Graphics/SVG/1.1/DTD/svg11.dtd">
<svg version="1.1" id="Capa_1" xmlns="http://www.w3.org/2000/svg" xmlns:xlink="http://www.w3.org/1999/xlink" x="0px" y="0px"
	 width="651.97px" height="226.77px" viewBox="0 0 651.97 226.77" enable-background="new 0 0 651.97 226.77" xml:space="preserve">
<g opacity="0.7">
	<g>
		<g>
			<path d="M658.889,166.914c-0.732-0.428-1.439-0.838-2.088-1.393c-0.619-0.535-1.146-1.162-1.669-1.783
				c-1.011-1.191-2.203-2.209-2.751-3.719c-0.064,0.09-0.129,0.182-0.191,0.271c1.37,0.887,2.557,2.002,3.656,3.203
				c1.027,1.127,2.035,2.313,2.826,3.611c0.305,0.502,0.797,0.203,0.494-0.295c-1.685-2.744-4.171-5.412-6.98-7.02
				c-0.191-0.109-0.258,0.131-0.189,0.273c0.715,1.484,1.857,2.752,2.908,4.008c1.016,1.213,2.348,2.922,4.023,3.17
				C659.135,167.273,658.978,166.967,658.889,166.914L658.889,166.914z"/>
		</g>
	</g>
</g>
<g>
	<g>
		<g>
			<path d="M71.383,85.951c7.798-0.074,14.631,1.735,20.516,5.392c8.903,5.696,13.43,14.4,13.542,26.155
				c0.07,9.211-2.939,16.767-9.068,22.672c-6.275,5.969-14.31,9.002-24.083,9.092l-31.446,0.28l-0.024-2.841l8.449-0.077
				l-0.544-57.609l-8.446,0.084l-0.039-2.852L71.383,85.951z M63.489,88.868l0.544,57.613l8.021-0.074
				c3.287-0.034,6.062-0.723,8.32-2.083c5.8-3.501,8.642-12.565,8.488-27.206c-0.069-7.305-0.82-13.183-2.275-17.598
				c-2.531-7.218-7.483-10.795-14.882-10.718L63.489,88.868z"/>
			<path d="M156.367,140.873c-3.536,5.796-9.428,8.731-17.65,8.809c-4.632,0.045-8.802-0.873-12.471-2.729
				c-7.71-3.943-11.608-11.001-11.713-21.21c-0.052-6.254,1.588-11.511,4.917-15.758c4.377-5.462,10.527-8.234,18.491-8.308
				c4.363-0.041,8.293,0.671,11.749,2.104c6.146,2.691,9.235,7.026,9.276,12.994c0.036,1.201-0.174,2.294-0.593,3.281
				c-1.787,3.958-8.349,5.808-19.677,5.571l-9.703-0.238c0.084,4.087,0.5,7.604,1.145,10.548
				c1.703,7.165,5.354,10.714,10.988,10.662c1.748-0.021,3.469-0.349,5.147-0.998c4.213-1.591,7.277-4.537,9.204-8.845l2.541,0.824
				C157.599,138.701,157.033,139.79,156.367,140.873z M128.958,122.339l6.757,0.256c2.806,0.111,4.914-0.082,6.331-0.594
				c1.944-0.785,2.918-2.838,2.883-6.14c-0.139-7.521-2.457-11.339-6.959-11.451C132.34,104.687,129.334,110.661,128.958,122.339z"
				/>
			<path d="M216.332,199.115c0.915,0.137,1.377,1.017,1.385,2.633l-29.432,0.271l-0.024-2.732c1.972-0.027,3.556-0.175,4.75-0.463
				c2.306-0.664,3.454-2.43,3.419-5.32l-0.533-108.915l-8.224,0.077l-0.038-2.747l21.625-0.199l0.614,117.35l5.298-0.037
				C215.583,199.033,215.981,199.058,216.332,199.115z"/>
			<path d="M251.991,142.258c-0.353,0.987-0.8,1.947-1.357,2.862c-2.754,4.52-7.142,6.822-13.117,6.876
				c-1.964,0.021-3.776-0.214-5.393-0.695c-5.507-1.696-8.271-5.679-8.338-11.937c-0.023-9.225,9.009-14.09,27.084-14.613
				l-0.063-6.869c-0.007-2.031-0.174-3.786-0.468-5.26c-0.748-3.999-2.764-5.995-6.083-5.96c-0.989,0.017-1.854,0.191-2.628,0.551
				c-1.19,0.719-2.15,2.496-2.911,5.309c-0.269,0.983-0.475,1.692-0.614,2.118c-1.026,2.967-3.043,4.454-6.073,4.492
				c-0.699,0.003-1.375-0.087-2.004-0.311c-2.61-0.674-3.923-2.384-3.946-5.127c-0.025-1.19,0.286-2.325,0.897-3.386
				c2.435-4.17,8.418-6.311,18.005-6.397c2.454-0.018,4.746,0.206,6.857,0.681c8.174,1.958,12.307,7.343,12.408,16.139l0.185,22.047
				c0.045,3.376,0.817,5.127,2.381,5.249c2.037-0.087,3.238-2.559,3.623-7.427l2.747,0.087c-0.171,2.179-0.479,3.983-0.897,5.39
				c-1.233,3.737-4.405,5.622-9.547,5.685C257.11,151.454,253.522,148.292,251.991,142.258z M244.637,147.074
				c2.959-1.162,5.067-4.195,6.373-9.141l-0.104-10.227c-3.169,0.171-5.769,0.579-7.804,1.229c-3.784,1.44-5.657,4.495-5.616,9.13
				c0.124,6.126,1.934,9.238,5.48,9.343C243.443,147.402,244.011,147.295,244.637,147.074z"/>
			<path d="M306.126,151.996l-0.02-2.849l10.034-0.095l-0.544-96.565l-1.797,0.01c-2.409,0.018-4.436,0.496-6.101,1.427
				c-2.464,1.435-4.426,4.408-5.934,8.928l-3.203,9.521l-3.165,0.036l0.219-22.588l54.664-0.517l0.634,22.578l-3.162,0.028
				l-3.361-9.461c-0.52-1.341-0.962-2.496-1.405-3.477c-2.157-4.478-5.772-6.69-10.834-6.642l-1.801,0.011l0.552,96.583l7.183-0.069
				c1.47,0.129,2.439,1.068,2.862,2.816L306.126,151.996z"/>
			<path d="M209.519,199.036l3.342-0.014c2.394-0.024,4.433-0.507,6.112-1.424c2.457-1.445,4.421-4.408,5.93-8.921l3.19-9.529
				l3.163-0.034l-0.224,22.584l-42.706,0.321v-2.84c8.103,0,7.954-2.521,7.954-6.245l-0.534-108.223l-7.158,0.067
				c-1.477-0.126-2.44-1.068-2.879-2.824l23.279-0.234L209.519,199.036z"/>
			<path d="M382.227,149.13c0.942,0.137,1.393,1.017,1.402,2.621l-25.952,0.245l-0.034-2.744c0.92-0.007,1.716-0.084,2.441-0.23
				c2.459-0.438,3.659-2.213,3.63-5.312l-0.328-34.389l-6.101,0.056l-0.038-2.747l19.527-0.188l0.395,42.622l3.906-0.028
				C381.5,149.028,381.891,149.063,382.227,149.13z M376.572,96.417c-1.459,2.622-3.721,3.948-6.827,3.972
				c-1.272,0.021-2.498-0.286-3.696-0.911c-2.774-1.378-4.143-3.616-4.197-6.711c0-1.341,0.307-2.608,0.928-3.805
				c1.524-2.757,3.783-4.149,6.819-4.184c1.348-0.011,2.604,0.328,3.814,1.037c2.747,1.441,4.137,3.709,4.172,6.816
				C377.609,93.95,377.267,95.22,376.572,96.417z"/>
			<path d="M432.687,143.176c-3.538,5.793-9.423,8.736-17.652,8.82c-4.635,0.041-8.816-0.87-12.48-2.729
				c-7.707-3.934-11.602-11.004-11.706-21.21c-0.042-6.258,1.592-11.511,4.911-15.772c4.394-5.444,10.547-8.22,18.508-8.289
				c4.343-0.046,8.264,0.656,11.727,2.104c6.136,2.684,9.257,7.015,9.299,13.004c0.007,1.19-0.196,2.28-0.602,3.265
				c-1.793,3.964-8.341,5.817-19.684,5.569l-9.711-0.224c0.124,4.084,0.504,7.595,1.159,10.549
				c1.683,7.153,5.345,10.693,10.966,10.651c1.768-0.025,3.48-0.356,5.181-1.01c4.197-1.576,7.266-4.522,9.189-8.829l2.548,0.813
				C433.912,141.02,433.365,142.114,432.687,143.176z M405.272,124.66l6.761,0.255c2.799,0.111,4.921-0.091,6.313-0.59
				c1.977-0.793,2.932-2.845,2.908-6.149c-0.141-7.528-2.465-11.336-6.96-11.435C408.654,107,405.659,112.981,405.272,124.66z"/>
			<path d="M470.864,149.088c0.9,0.134,1.388,1.005,1.396,2.621l-29.855,0.287l-0.027-2.737c0.91-0.007,1.717-0.084,2.418-0.24
				c2.446-0.436,3.672-2.206,3.63-5.313l-0.324-34.381L442,109.377l-0.035-2.754l18.478-0.168l0.815,9.805
				c0.754-1.973,1.875-3.818,3.326-5.525c3.274-3.459,7.089-5.231,11.459-5.27c0.921-0.012,1.793,0.083,2.646,0.282
				c3.451,0.886,5.201,3.085,5.238,6.606c0,0.991-0.219,1.944-0.634,2.858c-1.153,2.678-3.167,4.031-5.952,4.06
				c-0.857,0.014-1.626-0.084-2.339-0.289c-1.479-0.549-2.861-1.948-4.152-4.182c-0.93-1.609-1.78-2.412-2.534-2.404
				c-0.446,0-0.901,0.114-1.389,0.331c-3.083,1.644-4.838,6.167-5.249,13.557l0.222,22.783l7.799-0.074
				C470.116,148.99,470.486,149.035,470.864,149.088z"/>
			<path d="M517.541,149.088c0.914,0.134,1.39,1.009,1.409,2.615l-29.875,0.293l-0.021-2.751c0.907-0.011,1.703-0.083,2.427-0.224
				c2.461-0.456,3.675-2.216,3.646-5.316l-0.335-34.395l-6.108,0.056l-0.035-2.736l18.484-0.188l0.816,9.814
				c0.751-1.969,1.854-3.814,3.302-5.528c3.296-3.466,7.12-5.229,11.474-5.274c0.932-0.01,1.787,0.095,2.645,0.29
				c3.459,0.887,5.194,3.089,5.225,6.604c0.018,0.984-0.182,1.94-0.593,2.858c-1.173,2.677-3.155,4.034-5.979,4.07
				c-0.868,0-1.634-0.098-2.332-0.305c-1.497-0.551-2.872-1.937-4.152-4.188c-0.925-1.595-1.787-2.408-2.546-2.401
				c-0.445,0-0.878,0.122-1.375,0.335c-3.088,1.651-4.836,6.171-5.248,13.553l0.201,22.783l7.809-0.066
				C516.802,148.98,517.186,149.021,517.541,149.088z"/>
			<path d="M563.863,142.266c-0.35,0.984-0.79,1.946-1.348,2.857c-2.778,4.537-7.155,6.831-13.124,6.873
				c-1.964,0.021-3.776-0.206-5.388-0.688c-5.5-1.703-8.294-5.679-8.349-11.95c-0.018-9.204,9.012-14.075,27.084-14.603
				l-0.074-6.862c0-2.038-0.149-3.787-0.457-5.259c-0.746-4.011-2.765-6.001-6.079-5.962c-0.972,0.014-1.872,0.192-2.618,0.548
				c-1.197,0.716-2.15,2.489-2.903,5.302c-0.283,0.998-0.482,1.692-0.637,2.126c-1.019,2.959-3.043,4.456-6.059,4.487
				c-0.697,0.012-1.381-0.104-2.01-0.296c-2.617-0.677-3.909-2.395-3.944-5.131c-0.027-1.204,0.283-2.331,0.904-3.386
				c2.437-4.182,8.418-6.313,17.985-6.404c2.479-0.024,4.773,0.199,6.869,0.678c8.197,1.964,12.31,7.339,12.382,16.131l0.206,22.054
				c0.042,3.373,0.848,5.129,2.392,5.251c2.031-0.092,3.231-2.569,3.608-7.421l2.754,0.081c-0.199,2.188-0.507,3.976-0.904,5.381
				c-1.225,3.741-4.411,5.653-9.548,5.693C568.979,151.462,565.398,148.295,563.863,142.266z M556.52,147.074
				c2.945-1.148,5.054-4.188,6.345-9.13l-0.09-10.237c-3.17,0.171-5.771,0.586-7.805,1.242c-3.773,1.435-5.626,4.476-5.596,9.117
				c0.124,6.126,1.935,9.238,5.463,9.343C555.333,147.409,555.898,147.298,556.52,147.074z"/>
		</g>
	</g>
	<g>
		<path d="M236.564,172.545v-0.631h2.208v-12.708h-0.398c-0.522,0-0.977,0.102-1.347,0.307c-0.547,0.308-0.983,0.96-1.333,1.954
			l-0.719,2.096h-0.691l0.091-4.98h12.048l0.09,4.98h-0.698l-0.711-2.096c-0.109-0.299-0.214-0.547-0.308-0.773
			c-0.467-0.981-1.253-1.487-2.373-1.487h-0.39v12.708h1.577c0.328,0.031,0.53,0.24,0.636,0.631H236.564z"/>
		<path d="M265.228,172.545v-0.631h1.648l-1.76-4.464h-4.62l-1.672,4.464h1.299c0.09,0,0.177,0.007,0.254,0.021
			c0.202,0.03,0.301,0.239,0.301,0.609h-4.276v-0.631h1.477l5.106-13.332h1.721l5.49,13.332h0.711c0.074,0,0.171,0.007,0.245,0.021
			c0.199,0.03,0.299,0.239,0.299,0.609H265.228z M262.779,161.401l-2.004,5.351h4.07L262.779,161.401z"/>
		<path d="M281.455,172.545v-0.631h1.867v-12.708h-1.867v-0.624h7.096v0.624h-1.977v12.708h2.402c0.447,0,0.873-0.077,1.225-0.234
			c0.6-0.289,1.072-0.962,1.4-2.004l0.669-2.181h0.676l-0.09,5.05H281.455z"/>
		<path d="M302.951,172.545v-0.631h1.857v-12.708h-1.857v-0.624h7.091v0.624h-1.975v12.708h2.387c0.475,0,0.897-0.077,1.243-0.234
			c0.6-0.289,1.067-0.962,1.399-2.004l0.674-2.181h0.674l-0.091,5.05H302.951z"/>
		<path d="M335.493,163.048l-0.51-1.602c-0.056-0.142-0.104-0.285-0.161-0.415c-0.48-1.218-1.363-1.825-2.631-1.825h-2.633V165
			h4.468v0.708h-4.468v6.206h2.633c0.293,0,0.572-0.031,0.83-0.098c0.888-0.227,1.521-0.935,1.935-2.141l0.537-1.601h0.669
			l-0.09,4.47h-11.636v-0.631h1.867v-12.708h-1.867v-0.624h11.636l0.09,4.466H335.493z"/>
		<path d="M347.213,172.545v-0.631h1.864v-12.708h-1.864v-0.624h7.762c1.243,0,2.311,0.304,3.17,0.89
			c1.025,0.69,1.549,1.612,1.549,2.764c0,0.34-0.066,0.674-0.153,0.994c-0.37,1.327-1.368,2.213-3.001,2.657l3.588,6.049h0.3
			c0.077,0,0.157,0.01,0.229,0.03c0.246,0.045,0.385,0.234,0.385,0.579l-4.104,0.025l-3.463-6.405h-1.144v5.749h1.864v0.631H347.213
			z M352.33,159.206v6.261h1.441c0.457,0,0.883-0.114,1.238-0.338c0.803-0.52,1.208-1.444,1.208-2.774
			c0-0.436-0.057-0.849-0.161-1.264c-0.366-1.253-1.201-1.885-2.464-1.885H352.33z"/>
		<path d="M395.566,171.258c-1.054,1.016-2.565,1.521-4.544,1.521c-1.683,0-3.128-0.398-4.321-1.189
			c0,0.265-0.015,0.474-0.045,0.632c-0.074,0.241-0.325,0.368-0.751,0.368v-4.931h0.908c0.079,0.813,0.236,1.55,0.515,2.188
			c0.664,1.501,1.822,2.255,3.471,2.255c0.433,0,0.83-0.069,1.186-0.188c0.992-0.371,1.48-1.109,1.48-2.238
			c0-0.316-0.063-0.642-0.202-0.949c-0.328-0.651-1.159-1.322-2.496-2.02c-1.482-0.768-2.32-1.205-2.506-1.33
			c-1.476-0.918-2.208-2.018-2.208-3.299c0-0.872,0.299-1.626,0.902-2.265c0.954-0.975,2.371-1.462,4.241-1.462
			c1.432,0,2.785,0.306,4.065,0.907c0-0.144,0.005-0.262,0.018-0.373c0.087-0.294,0.343-0.438,0.782-0.438v4.206h-0.914
			c-0.008-0.834-0.209-1.563-0.607-2.17c-0.636-0.957-1.591-1.439-2.855-1.439c-0.321,0-0.635,0.05-0.936,0.144
			c-0.886,0.286-1.333,0.897-1.333,1.812c0,0.362,0.077,0.695,0.241,1.033c0.331,0.656,1.142,1.326,2.446,2.011
			c1.425,0.767,2.233,1.204,2.437,1.309c1.41,0.907,2.129,2.014,2.129,3.309C396.669,169.676,396.299,170.556,395.566,171.258z"/>
		<path d="M415.974,172.545v-0.631h1.651l-1.746-4.464h-4.642l-1.662,4.464h1.299c0.091,0,0.17,0.007,0.244,0.021
			c0.206,0.03,0.307,0.239,0.307,0.609h-4.279v-0.631h1.494l5.092-13.332h1.729l5.479,13.332h0.713c0.08,0,0.17,0.007,0.251,0.021
			c0.188,0.03,0.307,0.239,0.307,0.609H415.974z M413.52,161.401l-2,5.351h4.079L413.52,161.401z"/>
		<path d="M432.206,172.545v-0.631h1.863v-12.708h-1.863v-0.624h7.086v0.624h-1.977v12.708h2.401c0.468,0,0.868-0.077,1.236-0.234
			c0.597-0.289,1.066-0.962,1.389-2.004l0.685-2.181h0.669l-0.09,5.05H432.206z"/>
		<path d="M453.454,158.582h6.988v0.624h-1.864v8.031c0,0.89,0.069,1.647,0.206,2.279c0.383,1.706,1.35,2.562,2.914,2.562
			c2.485-0.015,3.727-1.627,3.756-4.841v-8.031h-1.871v-0.624h4.582v0.624h-1.86v7.892c0,1.102-0.122,2.038-0.373,2.819
			c-0.646,1.899-2.223,2.862-4.716,2.862c-3.901-0.014-5.862-1.805-5.897-5.36v-8.213h-1.864V158.582z"/>
		<path d="M485.146,158.582c1.724,0,3.225,0.415,4.516,1.231c1.955,1.271,2.925,3.207,2.925,5.798c0,2.033-0.678,3.688-2.041,4.982
			c-1.399,1.3-3.173,1.951-5.33,1.951h-6.946v-0.631h1.864v-12.708h-1.864v-0.624H485.146z M483.397,159.206v12.708h1.763
			c0.738,0,1.353-0.15,1.842-0.443c1.299-0.758,1.927-2.75,1.927-5.975c0-1.616-0.146-2.918-0.464-3.886
			c-0.542-1.601-1.616-2.404-3.25-2.404H483.397z"/>
		<path d="M511.761,172.545v-0.631h1.641l-1.738-4.464h-4.642l-1.661,4.464h1.298c0.098,0,0.175,0.007,0.266,0.021
			c0.195,0.03,0.294,0.239,0.294,0.609h-4.283v-0.631h1.497l5.096-13.332h1.718l5.479,13.332h0.712c0.097,0,0.174,0.007,0.255,0.021
			c0.205,0.03,0.31,0.239,0.31,0.609H511.761z M509.318,161.401l-2.004,5.351h4.07L509.318,161.401z"/>
		<path d="M540.043,162.68c-0.396,1.089-1.275,1.845-2.675,2.3c0.373,0.052,0.727,0.117,1.069,0.209
			c1.874,0.495,2.816,1.608,2.816,3.329c0,0.775-0.238,1.497-0.695,2.141c-0.953,1.256-2.489,1.887-4.61,1.887h-7.953v-0.631h1.859
			v-12.708h-1.859v-0.624h7.541c0.853,0,1.603,0.098,2.279,0.274c1.602,0.472,2.392,1.422,2.392,2.866
			C540.207,162.033,540.157,162.354,540.043,162.68z M533.107,159.206v5.455h1.305c0.279,0,0.545-0.038,0.785-0.097
			c1.087-0.318,1.624-1.205,1.624-2.66c-0.008-1.756-0.873-2.66-2.598-2.698H533.107z M533.107,165.308v6.606h1.563
			c0.196,0,0.397-0.008,0.601-0.045c1.612-0.241,2.422-1.407,2.422-3.519c0-0.46-0.074-0.89-0.216-1.303
			c-0.405-1.161-1.216-1.74-2.464-1.74H533.107z"/>
		<path d="M551.828,172.545v-0.631h1.864v-12.708h-1.864v-0.624h7.093v0.624h-1.976v12.708h2.401c0.46,0,0.88-0.077,1.228-0.234
			c0.614-0.289,1.076-0.962,1.397-2.004l0.677-2.181h0.67l-0.084,5.05H551.828z"/>
		<path d="M584.382,163.048l-0.507-1.602c-0.063-0.142-0.111-0.285-0.182-0.415c-0.467-1.218-1.354-1.825-2.625-1.825h-2.623V165
			h4.467v0.708h-4.467v6.206h2.623c0.301,0,0.581-0.031,0.838-0.098c0.885-0.227,1.536-0.935,1.935-2.141l0.541-1.601h0.677
			l-0.098,4.47h-11.64v-0.631h1.864v-12.708h-1.864v-0.624h11.64l0.098,4.466H584.382z"/>
	</g>
</g>
</svg>
