<?xml version="1.0" encoding="utf-8"?>
<!-- Generator: Adobe Illustrator 16.0.0, SVG Export Plug-In . SVG Version: 6.00 Build 0)  -->
<!DOCTYPE svg PUBLIC "-//W3C//DTD SVG 1.1//EN" "http://www.w3.org/Graphics/SVG/1.1/DTD/svg11.dtd">
<svg version="1.1" id="Capa_1" xmlns="http://www.w3.org/2000/svg" xmlns:xlink="http://www.w3.org/1999/xlink" x="0px" y="0px"
	 width="359.334px" height="424.333px" viewBox="0 0 359.334 424.333" enable-background="new 0 0 359.334 424.333"
	 xml:space="preserve">
<path fill-rule="evenodd" clip-rule="evenodd" stroke="#FFFFFF" stroke-width="6" stroke-miterlimit="10" d="M210.942,346.366
	c-7.906,6.274-16.171,12.371-23.82,19.161c-2.636,2.34-4.328,6.219-5.443,9.716c-4.863,15.245-9.176,30.666-14.097,45.89
	c-1.408,4.359-3.483,10.584-9.696,7.205c-2.172-1.18-2.947-7.723-2.08-11.257c7.474-30.458,17.655-51.423,23.822-108.757
	c0,0-2.723-6.632-12.304-16.285c-13.397,13.935-28.712,23.71-47.634,27.791c-14.253,3.074-27.468,0.669-40.236-5.198
	c-30.795-14.152-52.602-38.476-72.188-65.077c-15.306-20.784-15.064-21.327,9.037-30.307c29.058-10.823,58.617-18.697,90.144-15.864
	c34.933,3.14,63.442,31.052,66.039,66.51c0.645,8.79,2.526,8.607,10.28,15.066c1.052-14.701,3.001-31.634,5.035-48.729
	c2.417-20.32-5.511-36.067-18.146-50.644c-3.564-4.111-6.296-5.602-11.989-2.804c-23.107,11.356-44.621,7.885-60.165-12.942
	c-11.308-15.152-18.849-33.226-27.19-50.424c-3.195-6.587-0.444-11.279,8.071-12.39c19.991-2.606,39.738-2.69,59.115,3.378
	c24.828,7.774,37.386,26.841,35.15,52.741c-0.648,7.493,0.44,9.248,15.332,23.385c-3.35-24.421-6.262-46.706-9.664-68.915
	c-0.362-2.351-3.233-5.479-5.566-6.191c-28.922-8.814-42.801-26.962-38.714-56.607c2.409-17.482,9.475-34.362,14.897-51.37
	c2.147-6.739,6.949-7.865,12.789-3.626c16.229,11.781,31.128,24.845,41.362,42.463c13.19,22.706,10.503,43.413-7.742,62.201
	c-2.165,2.229-4.549,5.906-4.244,8.619c3.365,29.823,7.243,59.589,11.08,90.149c5.669-6.9,10.805-12.427,10.95-22.954
	c0.392-28.396,21.568-47.192,53.523-47.446c15.861-0.126,31.8,3.215,47.61,5.599c6.315,0.952,10.271,5.306,6.163,11.752
	c-9.777,15.346-18.273,32.107-30.671,45.052c-21.501,22.441-39.786,22.969-68.919,6.287c-10.507,11.847-18.613,24.642-20.325,41.206
	c-3.325,32.208-7.387,64.342-11.097,96.511c-0.218,1.885-0.027,3.817-0.027,6.516c8.873-5.469,16.588-9.245,17.272-22.246
	c2.111-40.052,28.151-64.814,68.786-67.662c26.169-1.833,51.948,0.759,77.266,7.72c10.402,2.86,11.81,5.378,7.36,14.823
	c-12.676,26.916-28.475,51.434-50.932,71.647c-32.82,29.541-73.626,18.563-95.219-1.645
	C213.23,347.771,212.352,347.327,210.942,346.366z M158.237,264.91c-0.883-19.482-20.322-42.7-42.181-47.221
	c-36.248-7.497-69.544,3.652-104.143,17.013c7.773,9.944,14.231,19.055,21.561,27.405c16.225,18.489,34.214,34.778,57.838,43.59
	c23.305,8.693,56.233-6.249,65.55-24.599L158.237,264.91z M347.178,275.949c-25.056-8.419-61.358-10.333-85.333-4.745
	c-25.491,5.942-45.39,31.23-42.212,51.803c22.202-10.298,44.747-20.873,67.415-31.178c4.92-2.235,10.183-4.229,15.474-4.939
	c3.055-0.411,6.483,1.966,9.744,3.088c-2.157,2.955-4.239,5.967-6.522,8.819c-0.52,0.647-1.766,0.679-2.634,1.085
	c-24.842,11.656-49.695,23.289-74.488,35.052c-2.069,0.981-3.71,2.861-5.676,4.423c25.6,21.785,53.588,21.848,78.055,0.69
	C321.277,322.513,335.209,300.417,347.178,275.949z M306.478,149.719c-18.699-4.378-36.36-6.264-54.174-1.961
	c-15.829,3.824-24.643,14.626-25.357,28.51c-1.279,10.399,6.747,17.356,6.747,17.356c14.256,9.271,28.177,9.038,41.792-2.202
	C288.777,180.45,298.402,166.612,306.478,149.719z M159.967,156.607c-0.912-13.484-4.987-22.689-13.209-27.908
	c-19.24-12.218-40.435-10.66-62.973-9.325c7.56,20.604,15.884,38.761,32.983,51.257c10.331,7.548,26.101,6.968,37.42-1.959
	c-10.864-6.992-21.166-13.935-31.805-20.317c-4.366-2.618-9.376-4.687-6.286-10.663c3.261-6.309,8.321-2.954,12.349-0.561
	C138.86,143.321,149.075,149.846,159.967,156.607z M187.355,94.488c7.959-9.836,13.611-19.19,10.892-30.291
	c-5.495-22.429-22.013-36.537-39.78-50.769c-8.217,17.765-12.716,34.803-11.829,53.177c0.758,15.708,10.305,27.146,27.08,30.986
	c-0.272-2.337-0.269-4.528-0.813-6.571c-3.388-12.686-7.239-25.261-10.112-38.059c-0.648-2.889,1.971-6.512,3.087-9.797
	c2.991,2.085,6.098,4.031,8.903,6.341c0.807,0.666,0.745,2.383,1.087,3.618C179.532,66.315,183.194,79.507,187.355,94.488z"/>
</svg>
