<?xml version="1.0" encoding="utf-8"?>
<!-- Generator: Adobe Illustrator 16.0.0, SVG Export Plug-In . SVG Version: 6.00 Build 0)  -->
<!DOCTYPE svg PUBLIC "-//W3C//DTD SVG 1.1//EN" "http://www.w3.org/Graphics/SVG/1.1/DTD/svg11.dtd">
<svg version="1.1" id="Capa_1" xmlns="http://www.w3.org/2000/svg" xmlns:xlink="http://www.w3.org/1999/xlink" x="0px" y="0px"
	 width="265.115px" height="429.208px" viewBox="0 0 265.115 429.208" enable-background="new 0 0 265.115 429.208"
	 xml:space="preserve">
<g>
	<path fill-rule="evenodd" clip-rule="evenodd" stroke="#FFFFFF" stroke-width="2" stroke-miterlimit="10" d="M132.803,50.877
		c1.84-2.984,3.638-5.678,5.217-8.496c8.225-14.675,19.543-26.105,34.722-33.609c7.175-3.546,14.833-5.502,22.52-7.479
		c3.808-0.979,7.602-1.328,11.508-1.292c9.253,0.087,18.507,0.028,27.761,0.028c2.623,0,4.273,1.237,4.47,3.897
		c0.215,2.912,0.25,5.877-0.038,8.779c-1.445,14.552-6.676,27.687-15.41,39.374c-11.723,15.688-26.9,26.41-46.07,31.004
		c-4.628,1.108-9.444,1.504-14.198,2c-4.534,0.473-26.148,4.643-26.148,4.643s-0.294,11.063-0.319,16.551
		c-0.061,13.357-0.158,26.714-0.208,40.071c-0.019,5.1,0.066,10.201,0.067,15.302c0,0.824,0.187,1.184,1.096,1.351
		c8.18,1.505,16.452,2.667,24.497,4.715c19.995,5.088,38.358,13.738,54.579,26.624c21.705,17.242,35.249,39.781,42.677,66.237
		c2.487,8.86,4.363,17.849,5.151,27.027c0.808,9.414,0.496,18.803-0.917,28.162c-2.125,14.066-6.616,27.359-12.877,40.086
		c-0.414,0.842-0.954,1.654-1.575,2.355c-1.378,1.563-2.784,1.805-4.646,0.949c-1.803-0.826-2.607-2.166-2.287-4.17
		c0.167-1.046,0.498-2.107,0.968-3.057c5.956-12.044,9.949-24.711,11.689-38.021c0.777-5.938,0.923-11.957,1.376-17.938
		c0.07-0.934-0.189-1.326-1.209-1.515c-10.892-2.021-21.772-4.099-32.649-6.194c-3.191-0.613-4.038-1.658-4.532-4.913
		c-0.592-3.904-1.69-7.601-4.917-10.253c-2.807-2.308-6.198-2.864-9.661-3.248c-7.718-0.854-14.362-3.649-18.677-10.537
		c-2.331-3.721-3.443-7.875-3.469-12.179c-0.032-5.3,0.177-10.626,0.706-15.897c0.612-6.099,4.055-10.477,9.337-13.501
		c7.337-4.201,14.644-8.46,21.963-12.694c0.372-0.215,0.741-0.435,1.295-0.762c-1.605-1.376-3.129-2.683-4.653-3.989
		c-11.512-9.869-24.733-16.584-39.086-21.222c-2.048-0.662-4.032-1.595-6.123-2.037c-3.769-0.798-6.642,1.017-9.208,3.592
		c-10.313,10.353-20.624,20.709-31.018,30.981c-2.571,2.542-5.296,4.984-8.221,7.097c-4.646,3.354-10.059,4.828-15.706,5.485
		c-2.841,0.331-5.615,0.902-8.183,2.244c-4.31,2.251-6.344,5.93-6.683,10.656c-0.272,3.79,0.466,7.478,1.183,11.169
		c0.565,2.908-0.768,4.977-3.581,5.616c-1.733,0.394-2.966-0.613-4.156-1.621c-1.443-1.225-2.84-2.503-4.313-3.807
		c-3.422,3.992-6.2,8.204-6.973,13.418c-1.162,7.844,0.735,14.807,6.208,20.679c3.568,3.828,7.721,5.509,12.942,3.751
		c1.54-0.52,3.189-0.744,4.804-1.006c13.559-2.193,24.98,1.434,33.852,12.279c5.229,6.393,11.599,11.182,19.81,13.146
		c6.646,1.589,13.174,0.838,19.723-0.735c2.833-0.68,5.779-0.958,8.692-1.222c2.235-0.202,2.977,0.486,3.333,2.657
		c1.14,6.936,2.404,13.855,3.319,20.82c0.725,5.514,1.257,11.08-0.253,16.6c-1.655,6.046-4.838,11.219-8.956,15.857
		c-6.148,6.927-12.921,13.223-19.73,19.484c-6.157,5.661-10.8,12.313-12.867,20.549c-0.408,1.625-0.521,3.352-1.117,4.898
		c-0.986,2.562-2.252,5.015-3.492,7.713c-1.245-1.961-2.392-3.805-3.572-5.625c-3.286-5.069-6.533-10.164-9.9-15.18
		c-1.872-2.789-4.398-4.971-7.152-6.887c-1.027-0.715-2.052-1.446-2.997-2.265c-2.574-2.231-4.137-4.968-4.514-8.446
		c-1.099-10.131-6.553-17.48-14.889-22.961c-2.772-1.822-5.547-3.664-8.142-5.723c-2.178-1.727-2.314-2.857-0.914-5.281
		c1.206-2.088,2.65-4.037,3.992-6.045c2.362-3.535,4.007-7.345,4.288-11.635c0.325-4.941-1.158-9.421-3.96-13.397
		c-3.481-4.938-7.16-9.739-10.788-14.575c-1.831-2.439-4.251-4.125-7.037-5.347c-12.588-5.524-25.166-11.075-37.749-16.616
		c-4.217-1.857-8.251-4.006-11.255-7.631c-1.818-2.195-3.533-4.477-5.295-6.717c-0.157-0.201-0.326-0.392-0.667-0.8
		c-0.248,0.989-0.485,1.776-0.64,2.581c-1.251,6.473-2.705,12.914-3.667,19.43c-0.999,6.762-1.003,13.615-0.566,20.439
		c0.711,11.117,2.894,21.953,6.601,32.469c5.834,16.552,14.7,31.278,26.677,44.105c17.179,18.397,38.007,30.539,62.556,36.197
		c8.06,1.857,16.257,2.678,24.526,2.923c16.462,0.486,32.42-2.007,47.756-8.066c4.404-1.74,8.664-3.845,12.989-5.784
		c0.628-0.282,1.233-0.635,1.885-0.848c1.516-0.495,3-0.494,4.21,0.73c1.256,1.27,2.012,2.792,1.339,4.566
		c-0.295,0.777-0.934,1.672-1.652,2.006c-10.2,4.742-20.369,9.635-31.393,12.2c-5.789,1.348-11.738,1.995-17.543,3.28
		c-3.048,0.675-6.059,0.706-9.113,0.719c-2.032,0.01-4.066-0.054-6.097,0.012c-6.624,0.216-13.166-0.271-19.694-1.541
		c-9.235-1.797-18.379-3.839-27.175-7.26c-15.678-6.096-29.666-14.883-41.973-26.33c-17.437-16.221-29.859-35.641-36.953-58.406
		c-3.017-9.68-4.699-19.607-5.357-29.724c-1.513-23.208,2.541-45.366,12.496-66.402c5.938-12.549,13.712-23.851,23.31-33.892
		c19.111-19.995,42.354-32.642,69.24-38.649c6.047-1.352,12.259-1.966,18.394-2.929c0.926-0.146,2.232-0.037,2.68-0.594
		c0.798-0.993,1.14-2.383,1.542-3.649c0.204-0.639,0.164-1.369,0.165-2.058c0.038-13.922,0.1-27.844,0.073-41.766
		c-0.007-4.184,0.229-26.723,0.229-26.723s-20.923-3.745-23.447-3.823c-19.243-0.599-36.313-6.913-50.995-19.388
		C41.753,55.627,33.364,42.633,29.119,27.143c-1.406-5.13-1.91-10.507-2.804-15.774c-0.268-1.573-0.492-3.155-0.67-4.741
		c-0.106-0.939-0.184-1.902-0.099-2.838c0.195-2.136,2.042-3.759,4.148-3.759c7.611,0,15.221-0.009,22.832,0.003
		c5.768,0.009,11.481,0.051,17.227,1.201c12.112,2.424,23.3,6.781,33.271,14.134c9.023,6.654,16.221,14.957,22.229,24.371
		C127.618,43.444,130.182,47.023,132.803,50.877z M147.48,176.489c-6.623-3.649-7.345-3.889-13.563-3.795
		c-7.908,0.12-15.769,0.773-23.571,2.144c-14.235,2.5-27.658,7.215-40.142,14.526c-17.047,9.983-30.649,23.593-41.753,39.807
		c-2.832,4.136-4.25,8.681-4.032,13.78c0.1,2.33-0.282,4.709-0.696,7.022c-0.472,2.64-1.114,5.243-0.688,7.947
		c0.703,4.468,3.256,7.484,7.312,9.357c9.86,4.555,19.708,9.138,29.564,13.701c0.136,0.063,0.312,0.04,0.563,0.067
		c-0.291-2.174-0.55-4.262-0.854-6.343c-0.82-5.638-0.981-11.261,0.279-16.863c1.788-7.945,6.095-14.329,12.378-19.35
		c2.712-2.168,4.686-4.614,5.993-7.878c2.813-7.025,7.653-12.067,15.295-13.816c2.852-0.652,5.804-0.876,8.642-1.575
		c6.93-1.707,12.695-5.49,17.75-10.432c6.521-6.375,13.102-12.69,19.52-19.166C142.289,182.787,144.761,179.616,147.48,176.489z
		 M131.202,393.57c0.423-0.525,0.694-0.924,1.025-1.263c5.861-5.993,11.687-12.022,17.612-17.954
		c3.998-4.003,8.218-7.785,12.195-11.809c7.152-7.236,10.906-15.949,10.807-26.188c-0.059-6.02-1.524-11.777-3.606-17.386
		c-0.115-0.311-0.867-0.603-1.276-0.55c-2.479,0.322-4.955,0.688-7.411,1.147c-5.313,0.993-10.626,1.195-15.962,0.237
		c-9.804-1.759-17.312-7.137-23.464-14.739c-10.001-12.356-22.993-14.462-37.032-7.778c0.327,0.371,0.635,0.721,0.944,1.068
		c3.357,3.774,6.75,7.514,9.332,11.902c4.375,7.439,5.947,15.279,3.537,23.721c-1.05,3.68-2.798,7.036-4.725,10.317
		c-0.229,0.39-0.375,1.196-0.159,1.419c1.49,1.54,2.914,3.238,4.678,4.4c8.578,5.652,14.193,13.273,15.912,23.494
		c0.493,2.937,1.171,5.688,3.476,7.713C121.688,385.372,126.342,389.36,131.202,393.57z M127.381,80.346
		c0.041-0.126,0.11-0.248,0.114-0.37c0.136-5.364-0.037-10.705-1.173-15.976c-3.452-15.998-12.028-28.814-24.811-38.737
		C82.049,10.158,59.983,5.233,35.802,9.408c-0.329,0.057-0.852,0.444-0.858,0.687c-0.046,1.939-0.314,3.955,0.102,5.809
		c0.966,4.319,2.048,8.643,3.493,12.822c4.474,12.938,11.833,23.916,22.735,32.368C72.027,69.428,84.33,74.15,97.639,76.27
		C107.515,77.841,117.456,79.001,127.381,80.346z M230.729,9.795c-6.237-1.302-12.151-1.985-18.114-1.926
		c-8.458,0.084-16.747,1.383-24.785,4.084c-15.042,5.056-27.644,13.625-37.323,26.268c-7.486,9.778-11.961,20.816-13.064,33.118
		c-0.259,2.9-0.038,5.843-0.038,8.877c2.154-0.295,4.49-0.611,6.826-0.938c4.654-0.651,9.306-1.317,13.961-1.962
		c5.122-0.71,10.322-1.063,15.358-2.163c26.781-5.854,47.622-25.855,54.666-52.375C229.338,18.554,229.895,14.178,230.729,9.795z
		 M254.687,285.441c0.026-0.498,0.049-0.878,0.066-1.257c0.221-4.897-0.31-9.698-1.398-14.493
		c-4.648-20.479-13.832-38.616-27.698-54.389c-1.074-1.221-2.378-1.937-3.944-2.293c-2.249-0.512-4.379-0.271-6.371,0.899
		c-4.978,2.922-9.952,5.816-15.167,8.339c-5.514,2.668-8.972,7.297-10.313,13.367c-0.879,3.981-0.647,7.973-0.098,11.974
		c1.126,8.194,6.132,12.872,14.355,13.483c3.767,0.28,7.404,1.164,10.775,2.941c4.96,2.615,8.171,6.772,10.414,11.802
		c1.307,2.93,3.418,4.9,6.697,5.49c4.958,0.893,9.904,1.864,14.859,2.777C249.439,284.557,252.022,284.98,254.687,285.441z"/>
	<path fill-rule="evenodd" clip-rule="evenodd" stroke="#FFFFFF" stroke-width="2" stroke-miterlimit="10" d="M223.849,390.621
		c-2.375-0.012-4.21-1.813-4.224-4.141c-0.014-2.357,1.923-4.283,4.275-4.252c2.347,0.03,4.194,1.857,4.221,4.174
		C228.149,388.801,226.292,390.635,223.849,390.621z"/>
</g>
</svg>
